<svg width="20" height="20" viewBox="0 0 20 20" fill="none" xmlns="http://www.w3.org/2000/svg">
<circle cx="10" cy="10" r="10" fill="#F3BA2F"/>
<path fill-rule="evenodd" clip-rule="evenodd" d="M7.66982 9.0425L10.0002 6.71218L12.3319 9.04373L13.6879 7.68774L10.0002 4L6.31383 7.6865L7.66982 9.0425ZM6.71225 9.99979L5.35628 8.64382L4.00024 9.99986L5.35621 11.3558L6.71225 9.99979ZM10.0002 13.2878L7.66982 10.9575L6.31184 12.3117L6.31373 12.3136L10.0002 16L13.6879 12.3124L13.6885 12.3116L12.3318 10.9564L10.0002 13.2878ZM14.6444 11.3565L16.0004 10.0004L14.6444 8.64445L13.2884 10.0005L14.6444 11.3565ZM11.3762 9.99929H11.3757L11.3769 9.99995L11.3762 10.0007L10.0002 11.3767L8.62548 10.0019L8.62359 9.99995L8.62548 9.99806L8.86651 9.75704L8.98327 9.64017H8.98337L10.0002 8.6233L11.3762 9.99929Z" fill="white"/>
</svg>
