<svg width="20" height="20" viewBox="0 0 20 20" fill="none" xmlns="http://www.w3.org/2000/svg">
<path d="M15.8333 2.5H4.16667C3.24619 2.5 2.5 3.24619 2.5 4.16667V15.8333C2.5 16.7538 3.24619 17.5 4.16667 17.5H15.8333C16.7538 17.5 17.5 16.7538 17.5 15.8333V4.16667C17.5 3.24619 16.7538 2.5 15.8333 2.5Z" stroke="#010504" strokeWidth="1.5" strokeLinecap="round" strokeLinejoin="round"/>
<path d="M7.08331 8.33301C7.77367 8.33301 8.33331 7.77336 8.33331 7.08301C8.33331 6.39265 7.77367 5.83301 7.08331 5.83301C6.39296 5.83301 5.83331 6.39265 5.83331 7.08301C5.83331 7.77336 6.39296 8.33301 7.08331 8.33301Z" stroke="#010504" strokeWidth="1.5" strokeLinecap="round" strokeLinejoin="round"/>
<path d="M17.5 12.4997L13.3334 8.33301L4.16669 17.4997" stroke="#010504" strokeWidth="1.5" strokeLinecap="round" strokeLinejoin="round"/>
</svg>
