<svg width="146" height="40" viewBox="0 0 146 40" fill="none" xmlns="http://www.w3.org/2000/svg">
<path d="M7.71485 20.0719C7.89649 26.1027 12.5473 30.9932 18.4697 31.5685C18.4868 31.5685 18.5006 31.5651 18.5143 31.5514L26.3799 23.6918C26.4142 23.6575 26.3902 23.6027 26.3422 23.6027H15.3749C15.3474 23.6027 15.3235 23.5788 15.3235 23.5514V15.8767C15.3235 15.8493 15.3474 15.8253 15.3749 15.8253H34.2559L34.2387 15.8425H39.4379C39.4653 15.8425 39.4893 15.8664 39.4893 15.8938V39.9486C39.4893 39.976 39.4653 40 39.4379 40H31.7574C31.7299 40 31.7059 39.976 31.7059 39.9486V29.3493C31.7059 29.3014 31.6511 29.2808 31.6168 29.3116L22.6682 38.2466C21.897 39.0171 20.8551 39.4623 19.7687 39.4658C19.7618 39.4658 19.755 39.4658 19.7515 39.4658C17.0474 39.4658 14.4735 38.9212 12.1292 37.9384C5.00386 34.9555 0 27.9212 0 19.7295C0 15.2363 1.49773 11.0925 4.0305 7.78083C7.63945 3.0548 13.3356 0 19.7515 0H39.9486C39.976 0 40 0.023981 40 0.0513782V7.72602C40 7.75342 39.976 7.7774 39.9486 7.7774H19.916C13.1368 7.78083 7.50921 13.3048 7.71485 20.0719Z" fill="#28FF98"/>
<path d="M62.7167 9.717C62.7167 11.8614 62.2556 13.5559 61.3334 14.8003C60.4223 16.0448 58.9223 16.667 56.8334 16.667C55.5445 16.667 54.45 16.3781 53.55 15.8003C52.65 15.2226 51.9723 14.4281 51.5167 13.417C51.0612 12.4059 50.8334 11.2448 50.8334 9.93366C50.8334 8.63366 51.0556 7.48922 51.5 6.50033C51.9556 5.51144 52.6334 4.73922 53.5334 4.18366C54.4334 3.617 55.5278 3.33366 56.8167 3.33366C58.1612 3.33366 59.2945 3.62811 60.2167 4.217C61.15 4.80589 61.8889 5.69478 62.4334 6.88366L60.8834 7.917C60.4834 6.96144 59.9667 6.25589 59.3334 5.80033C58.7 5.34478 57.8612 5.117 56.8167 5.117C55.9612 5.117 55.2167 5.317 54.5834 5.717C53.9612 6.10589 53.4778 6.66144 53.1334 7.38366C52.8 8.10589 52.6334 8.95589 52.6334 9.93366C52.6334 11.4781 53.0056 12.6892 53.75 13.567C54.4945 14.4337 55.5223 14.8726 56.8334 14.8837C57.9778 14.8726 58.8945 14.567 59.5834 13.967C60.2723 13.367 60.7223 12.5003 60.9334 11.367H56.55V9.73366L61.0834 9.717H62.7167Z" fill="#010504"/>
<path d="M64.944 9.93366C64.944 8.64478 65.1774 7.50589 65.6441 6.517C66.1218 5.517 66.8163 4.73922 67.7274 4.18366C68.6385 3.617 69.7329 3.33366 71.0107 3.33366C72.2885 3.33366 73.3829 3.617 74.2941 4.18366C75.2052 4.73922 75.8941 5.517 76.3607 6.517C76.8385 7.50589 77.0774 8.64478 77.0774 9.93366C77.0774 11.2337 76.8385 12.3948 76.3607 13.417C75.8941 14.4281 75.2052 15.2226 74.2941 15.8003C73.3829 16.3781 72.2885 16.667 71.0107 16.667C69.7329 16.667 68.6385 16.3781 67.7274 15.8003C66.8163 15.2226 66.1218 14.4281 65.6441 13.417C65.1774 12.3948 64.944 11.2337 64.944 9.93366ZM66.7607 9.93366C66.7607 10.9003 66.9274 11.7559 67.2607 12.5003C67.5941 13.2448 68.0774 13.8226 68.7107 14.2337C69.3552 14.6448 70.1218 14.8503 71.0107 14.8503C71.8996 14.8503 72.6607 14.6448 73.2941 14.2337C73.9385 13.8114 74.4274 13.2337 74.7607 12.5003C75.094 11.7559 75.2607 10.9003 75.2607 9.93366C75.2607 8.98922 75.094 8.15589 74.7607 7.43366C74.4274 6.71144 73.9385 6.15033 73.2941 5.75033C72.6607 5.35033 71.8996 5.15033 71.0107 5.15033C70.1218 5.15033 69.3552 5.35033 68.7107 5.75033C68.0774 6.15033 67.5941 6.71144 67.2607 7.43366C66.9274 8.15589 66.7607 8.98922 66.7607 9.93366Z" fill="#010504"/>
<path d="M84.7128 3.33366C86.0572 3.32255 87.0739 3.60033 87.7628 4.167C88.4628 4.72255 88.8128 5.47255 88.8128 6.417C88.8128 7.12811 88.6017 7.72811 88.1795 8.217C87.7684 8.69478 87.2017 8.97255 86.4795 9.05033C87.6684 9.15033 88.6295 9.48366 89.3628 10.0503C90.0961 10.617 90.4628 11.4392 90.4628 12.517C90.4628 13.9281 89.9239 14.9726 88.8461 15.6503C87.7795 16.3281 86.4017 16.667 84.7128 16.667H79.4128V3.33366H84.7128ZM84.7128 8.28366C85.4906 8.28366 86.0684 8.13922 86.4461 7.85033C86.8239 7.56144 87.0128 7.16144 87.0128 6.65033C87.0128 6.17255 86.8239 5.80033 86.4461 5.53366C86.0684 5.25589 85.4906 5.117 84.7128 5.117H81.1961V8.28366H84.7128ZM84.7128 14.8837C86.1128 14.8837 87.0961 14.6614 87.6628 14.217C88.2295 13.7614 88.5128 13.1559 88.5128 12.4003C88.5128 11.6892 88.2184 11.117 87.6295 10.6837C87.0406 10.2503 86.0684 10.0337 84.7128 10.0337H81.1961V14.8837H84.7128Z" fill="#010504"/>
<path d="M101.128 3.33366H103.178L98.4943 12.0003V16.6337H96.6443V12.0003L91.961 3.33366H93.9443L97.561 10.3337L101.128 3.33366Z" fill="#010504"/>
<path d="M59.6667 23.3337H61.4167V36.667H59.5167L52.5834 26.017V36.667H50.8334V23.3337H52.7334L59.6667 33.9837V23.3337Z" fill="#010504"/>
<path d="M74.1693 25.0837H66.336V29.1337L73.086 29.117V30.867H66.336V34.9337L74.1693 34.917V36.667H64.586V23.3337H66.336V23.3503L74.1693 23.3337V25.0837Z" fill="#010504"/>
<path d="M86.5494 23.3337V25.0837H82.3994V36.667H80.6494V25.0837H76.4994V23.3503H80.6494V23.3337H86.5494Z" fill="#010504"/>
<path d="M90.7015 23.3337L93.4848 34.1503L96.4848 23.3337H98.3015L101.085 34.1503L104.085 23.3337H105.901L102.035 36.667H100.085L97.3681 26.2003L94.4348 36.667H92.4848L88.8848 23.3337H90.7015Z" fill="#010504"/>
<path d="M107.406 29.9337C107.406 28.6448 107.64 27.5059 108.106 26.517C108.584 25.517 109.279 24.7392 110.19 24.1837C111.101 23.617 112.195 23.3337 113.473 23.3337C114.751 23.3337 115.845 23.617 116.756 24.1837C117.667 24.7392 118.356 25.517 118.823 26.517C119.301 27.5059 119.54 28.6448 119.54 29.9337C119.54 31.2337 119.301 32.3948 118.823 33.417C118.356 34.4281 117.667 35.2226 116.756 35.8003C115.845 36.3781 114.751 36.667 113.473 36.667C112.195 36.667 111.101 36.3781 110.19 35.8003C109.279 35.2226 108.584 34.4281 108.106 33.417C107.64 32.3948 107.406 31.2337 107.406 29.9337ZM109.223 29.9337C109.223 30.9003 109.39 31.7559 109.723 32.5003C110.056 33.2448 110.54 33.8226 111.173 34.2337C111.817 34.6448 112.584 34.8503 113.473 34.8503C114.362 34.8503 115.123 34.6448 115.756 34.2337C116.401 33.8114 116.89 33.2337 117.223 32.5003C117.556 31.7559 117.723 30.9003 117.723 29.9337C117.723 28.9892 117.556 28.1559 117.223 27.4337C116.89 26.7114 116.401 26.1503 115.756 25.7503C115.123 25.3503 114.362 25.1503 113.473 25.1503C112.584 25.1503 111.817 25.3503 111.173 25.7503C110.54 26.1503 110.056 26.7114 109.723 27.4337C109.39 28.1559 109.223 28.9892 109.223 29.9337Z" fill="#010504"/>
<path d="M132.792 27.617C132.792 28.4726 132.569 29.1892 132.125 29.767C131.681 30.3448 131.069 30.7948 130.292 31.117L132.675 36.667H130.725L128.542 31.5837C128.075 31.6614 127.564 31.7003 127.008 31.7003H123.658V36.667H121.875V23.3337H127.008C128.731 23.3337 130.125 23.6448 131.192 24.267C132.258 24.8892 132.792 26.0059 132.792 27.617ZM127.008 29.967C128.408 29.967 129.397 29.7781 129.975 29.4003C130.553 29.0114 130.842 28.4003 130.842 27.567C130.842 26.7559 130.542 26.1448 129.942 25.7337C129.353 25.3114 128.375 25.1003 127.008 25.1003H123.658V29.967H127.008Z" fill="#010504"/>
<path d="M145.223 23.3337L139.556 30.017L145.223 36.667H143.023L138.456 31.3003L136.873 33.167V36.667H135.123V23.3337H136.873V30.6003L143.023 23.3337H145.223Z" fill="#010504"/>
</svg>
