<svg width="146" height="40" viewBox="0 0 146 40" fill="none" xmlns="http://www.w3.org/2000/svg">
<path d="M7.71485 20.0719C7.89649 26.1027 12.5473 30.9932 18.4697 31.5685C18.4868 31.5685 18.5006 31.5651 18.5143 31.5514L26.3799 23.6918C26.4142 23.6575 26.3902 23.6027 26.3422 23.6027H15.3749C15.3474 23.6027 15.3235 23.5788 15.3235 23.5514V15.8767C15.3235 15.8493 15.3474 15.8253 15.3749 15.8253H34.2559L34.2387 15.8425H39.4379C39.4653 15.8425 39.4893 15.8664 39.4893 15.8938V39.9486C39.4893 39.976 39.4653 40 39.4379 40H31.7574C31.7299 40 31.7059 39.976 31.7059 39.9486V29.3493C31.7059 29.3014 31.6511 29.2808 31.6168 29.3116L22.6682 38.2466C21.897 39.0171 20.8551 39.4623 19.7687 39.4658C19.7618 39.4658 19.755 39.4658 19.7515 39.4658C17.0474 39.4658 14.4735 38.9212 12.1292 37.9384C5.00386 34.9555 0 27.9212 0 19.7295C0 15.2363 1.49773 11.0925 4.0305 7.78083C7.63945 3.0548 13.3356 0 19.7515 0H39.9486C39.976 0 40 0.023981 40 0.0513782V7.72602C40 7.75342 39.976 7.7774 39.9486 7.7774H19.916C13.1368 7.78083 7.50921 13.3048 7.71485 20.0719Z" fill="#28FF98"/>
<path d="M62.7166 9.71691C62.7166 11.8614 62.2555 13.5558 61.3333 14.8002C60.4222 16.0447 58.9222 16.6669 56.8333 16.6669C55.5444 16.6669 54.45 16.378 53.55 15.8002C52.65 15.2225 51.9722 14.428 51.5166 13.4169C51.0611 12.4058 50.8333 11.2447 50.8333 9.93357C50.8333 8.63357 51.0555 7.48913 51.5 6.50024C51.9555 5.51135 52.6333 4.73913 53.5333 4.18357C54.4333 3.61691 55.5278 3.33357 56.8166 3.33357C58.1611 3.33357 59.2944 3.62802 60.2166 4.21691C61.15 4.80579 61.8889 5.69468 62.4333 6.88357L60.8833 7.91691C60.4833 6.96135 59.9666 6.2558 59.3333 5.80024C58.7 5.34468 57.8611 5.11691 56.8166 5.11691C55.9611 5.11691 55.2166 5.31691 54.5833 5.71691C53.9611 6.10579 53.4778 6.66135 53.1333 7.38357C52.8 8.10579 52.6333 8.9558 52.6333 9.93357C52.6333 11.478 53.0055 12.6891 53.75 13.5669C54.4944 14.4336 55.5222 14.8725 56.8333 14.8836C57.9778 14.8725 58.8944 14.5669 59.5833 13.9669C60.2722 13.3669 60.7222 12.5002 60.9333 11.3669H56.55V9.73357L61.0833 9.71691H62.7166Z" fill="#E7FFF1"/>
<path d="M64.944 9.93357C64.944 8.64468 65.1773 7.50579 65.644 6.51691C66.1218 5.51691 66.8162 4.73913 67.7273 4.18357C68.6384 3.61691 69.7329 3.33357 71.0107 3.33357C72.2884 3.33357 73.3829 3.61691 74.294 4.18357C75.2051 4.73913 75.894 5.51691 76.3607 6.51691C76.8384 7.50579 77.0773 8.64468 77.0773 9.93357C77.0773 11.2336 76.8384 12.3947 76.3607 13.4169C75.894 14.428 75.2051 15.2225 74.294 15.8002C73.3829 16.378 72.2884 16.6669 71.0107 16.6669C69.7329 16.6669 68.6384 16.378 67.7273 15.8002C66.8162 15.2225 66.1218 14.428 65.644 13.4169C65.1773 12.3947 64.944 11.2336 64.944 9.93357ZM66.7607 9.93357C66.7607 10.9002 66.9273 11.7558 67.2607 12.5002C67.594 13.2447 68.0773 13.8225 68.7107 14.2336C69.3551 14.6447 70.1218 14.8502 71.0107 14.8502C71.8995 14.8502 72.6607 14.6447 73.294 14.2336C73.9384 13.8114 74.4273 13.2336 74.7607 12.5002C75.094 11.7558 75.2607 10.9002 75.2607 9.93357C75.2607 8.98913 75.094 8.1558 74.7607 7.43357C74.4273 6.71135 73.9384 6.15024 73.294 5.75024C72.6607 5.35024 71.8995 5.15024 71.0107 5.15024C70.1218 5.15024 69.3551 5.35024 68.7107 5.75024C68.0773 6.15024 67.594 6.71135 67.2607 7.43357C66.9273 8.1558 66.7607 8.98913 66.7607 9.93357Z" fill="#E7FFF1"/>
<path d="M84.7127 3.33357C86.0572 3.32246 87.0738 3.60024 87.7627 4.16691C88.4627 4.72246 88.8127 5.47246 88.8127 6.41691C88.8127 7.12802 88.6016 7.72802 88.1794 8.21691C87.7683 8.69468 87.2016 8.97246 86.4794 9.05024C87.6683 9.15024 88.6294 9.48357 89.3627 10.0502C90.0961 10.6169 90.4627 11.4391 90.4627 12.5169C90.4627 13.928 89.9238 14.9725 88.8461 15.6502C87.7794 16.328 86.4016 16.6669 84.7127 16.6669H79.4127V3.33357H84.7127ZM84.7127 8.28357C85.4905 8.28357 86.0683 8.13913 86.4461 7.85024C86.8239 7.56135 87.0127 7.16135 87.0127 6.65024C87.0127 6.17246 86.8239 5.80024 86.4461 5.53357C86.0683 5.25579 85.4905 5.11691 84.7127 5.11691H81.1961V8.28357H84.7127ZM84.7127 14.8836C86.1127 14.8836 87.0961 14.6614 87.6627 14.2169C88.2294 13.7614 88.5127 13.1558 88.5127 12.4002C88.5127 11.6891 88.2183 11.1169 87.6294 10.6836C87.0405 10.2502 86.0683 10.0336 84.7127 10.0336H81.1961V14.8836H84.7127Z" fill="#E7FFF1"/>
<path d="M101.128 3.33357H103.178L98.4943 12.0002V16.6336H96.6442V12.0002L91.9609 3.33357H93.9443L97.5609 10.3336L101.128 3.33357Z" fill="#E7FFF1"/>
<path d="M59.6666 23.3336H61.4166V36.6669H59.5166L52.5833 26.0169V36.6669H50.8333V23.3336H52.7333L59.6666 33.9836V23.3336Z" fill="#E7FFF1"/>
<path d="M74.1692 25.0836H66.3359V29.1336L73.0859 29.1169V30.8669H66.3359V34.9336L74.1692 34.9169V36.6669H64.5859V23.3336H66.3359V23.3502L74.1692 23.3336V25.0836Z" fill="#E7FFF1"/>
<path d="M86.5493 23.3336V25.0836H82.3993V36.6669H80.6493V25.0836H76.4993V23.3502H80.6493V23.3336H86.5493Z" fill="#E7FFF1"/>
<path d="M90.7014 23.3336L93.4847 34.1502L96.4847 23.3336H98.3014L101.085 34.1502L104.085 23.3336H105.901L102.035 36.6669H100.085L97.3681 26.2002L94.4347 36.6669H92.4847L88.8847 23.3336H90.7014Z" fill="#E7FFF1"/>
<path d="M107.406 29.9336C107.406 28.6447 107.64 27.5058 108.106 26.5169C108.584 25.5169 109.278 24.7391 110.19 24.1836C111.101 23.6169 112.195 23.3336 113.473 23.3336C114.751 23.3336 115.845 23.6169 116.756 24.1836C117.667 24.7391 118.356 25.5169 118.823 26.5169C119.301 27.5058 119.54 28.6447 119.54 29.9336C119.54 31.2336 119.301 32.3947 118.823 33.4169C118.356 34.428 117.667 35.2225 116.756 35.8002C115.845 36.378 114.751 36.6669 113.473 36.6669C112.195 36.6669 111.101 36.378 110.19 35.8002C109.278 35.2225 108.584 34.428 108.106 33.4169C107.64 32.3947 107.406 31.2336 107.406 29.9336ZM109.223 29.9336C109.223 30.9002 109.39 31.7558 109.723 32.5002C110.056 33.2447 110.54 33.8225 111.173 34.2336C111.817 34.6447 112.584 34.8502 113.473 34.8502C114.362 34.8502 115.123 34.6447 115.756 34.2336C116.401 33.8113 116.89 33.2336 117.223 32.5002C117.556 31.7558 117.723 30.9002 117.723 29.9336C117.723 28.9891 117.556 28.1558 117.223 27.4336C116.89 26.7113 116.401 26.1502 115.756 25.7502C115.123 25.3502 114.362 25.1502 113.473 25.1502C112.584 25.1502 111.817 25.3502 111.173 25.7502C110.54 26.1502 110.056 26.7113 109.723 27.4336C109.39 28.1558 109.223 28.9891 109.223 29.9336Z" fill="#E7FFF1"/>
<path d="M132.792 27.6169C132.792 28.4725 132.569 29.1891 132.125 29.7669C131.681 30.3447 131.069 30.7947 130.292 31.1169L132.675 36.6669H130.725L128.542 31.5836C128.075 31.6614 127.564 31.7002 127.008 31.7002H123.658V36.6669H121.875V23.3336H127.008C128.731 23.3336 130.125 23.6447 131.192 24.2669C132.258 24.8891 132.792 26.0058 132.792 27.6169ZM127.008 29.9669C128.408 29.9669 129.397 29.778 129.975 29.4002C130.553 29.0114 130.842 28.4002 130.842 27.5669C130.842 26.7558 130.542 26.1447 129.942 25.7336C129.353 25.3114 128.375 25.1002 127.008 25.1002H123.658V29.9669H127.008Z" fill="#E7FFF1"/>
<path d="M145.223 23.3336L139.556 30.0169L145.223 36.6669H143.023L138.456 31.3002L136.873 33.1669V36.6669H135.123V23.3336H136.873V30.6002L143.023 23.3336H145.223Z" fill="#E7FFF1"/>
</svg>
