<svg width="146" height="40" viewBox="0 0 146 40" fill="none" xmlns="http://www.w3.org/2000/svg">
<path d="M7.71485 20.0719C7.89649 26.1027 12.5473 30.9932 18.4697 31.5685C18.4868 31.5685 18.5006 31.5651 18.5143 31.5514L26.3799 23.6918C26.4142 23.6575 26.3902 23.6027 26.3422 23.6027H15.3749C15.3474 23.6027 15.3235 23.5788 15.3235 23.5514V15.8767C15.3235 15.8493 15.3474 15.8253 15.3749 15.8253H34.2559L34.2387 15.8425H39.4379C39.4653 15.8425 39.4893 15.8664 39.4893 15.8938V39.9486C39.4893 39.976 39.4653 40 39.4379 40H31.7574C31.7299 40 31.7059 39.976 31.7059 39.9486V29.3493C31.7059 29.3014 31.6511 29.2808 31.6168 29.3116L22.6682 38.2466C21.897 39.0171 20.8551 39.4623 19.7687 39.4658C19.7618 39.4658 19.755 39.4658 19.7515 39.4658C17.0474 39.4658 14.4735 38.9212 12.1292 37.9384C5.00386 34.9555 0 27.9212 0 19.7295C0 15.2363 1.49773 11.0925 4.0305 7.78083C7.63945 3.0548 13.3356 0 19.7515 0H39.9486C39.976 0 40 0.023981 40 0.0513782V7.72602C40 7.75342 39.976 7.7774 39.9486 7.7774H19.916C13.1368 7.78083 7.50921 13.3048 7.71485 20.0719Z" fill="#28FF98"/>
<path d="M62.7167 9.71691C62.7167 11.8614 62.2556 13.5558 61.3334 14.8002C60.4223 16.0447 58.9223 16.6669 56.8334 16.6669C55.5445 16.6669 54.45 16.378 53.55 15.8002C52.65 15.2225 51.9723 14.428 51.5167 13.4169C51.0612 12.4058 50.8334 11.2447 50.8334 9.93357C50.8334 8.63357 51.0556 7.48913 51.5 6.50024C51.9556 5.51135 52.6334 4.73913 53.5334 4.18357C54.4334 3.61691 55.5278 3.33357 56.8167 3.33357C58.1612 3.33357 59.2945 3.62802 60.2167 4.21691C61.15 4.80579 61.8889 5.69468 62.4334 6.88357L60.8834 7.91691C60.4834 6.96135 59.9667 6.2558 59.3334 5.80024C58.7 5.34468 57.8612 5.11691 56.8167 5.11691C55.9612 5.11691 55.2167 5.31691 54.5834 5.71691C53.9612 6.10579 53.4778 6.66135 53.1334 7.38357C52.8 8.10579 52.6334 8.9558 52.6334 9.93357C52.6334 11.478 53.0056 12.6891 53.75 13.5669C54.4945 14.4336 55.5223 14.8725 56.8334 14.8836C57.9778 14.8725 58.8945 14.5669 59.5834 13.9669C60.2723 13.3669 60.7223 12.5002 60.9334 11.3669H56.55V9.73357L61.0834 9.71691H62.7167Z" fill="#010504"/>
<path d="M64.944 9.93357C64.944 8.64468 65.1774 7.50579 65.6441 6.51691C66.1218 5.51691 66.8163 4.73913 67.7274 4.18357C68.6385 3.61691 69.7329 3.33357 71.0107 3.33357C72.2885 3.33357 73.3829 3.61691 74.2941 4.18357C75.2052 4.73913 75.8941 5.51691 76.3607 6.51691C76.8385 7.50579 77.0774 8.64468 77.0774 9.93357C77.0774 11.2336 76.8385 12.3947 76.3607 13.4169C75.8941 14.428 75.2052 15.2225 74.2941 15.8002C73.3829 16.378 72.2885 16.6669 71.0107 16.6669C69.7329 16.6669 68.6385 16.378 67.7274 15.8002C66.8163 15.2225 66.1218 14.428 65.6441 13.4169C65.1774 12.3947 64.944 11.2336 64.944 9.93357ZM66.7607 9.93357C66.7607 10.9002 66.9274 11.7558 67.2607 12.5002C67.5941 13.2447 68.0774 13.8225 68.7107 14.2336C69.3552 14.6447 70.1218 14.8502 71.0107 14.8502C71.8996 14.8502 72.6607 14.6447 73.2941 14.2336C73.9385 13.8114 74.4274 13.2336 74.7607 12.5002C75.094 11.7558 75.2607 10.9002 75.2607 9.93357C75.2607 8.98913 75.094 8.1558 74.7607 7.43357C74.4274 6.71135 73.9385 6.15024 73.2941 5.75024C72.6607 5.35024 71.8996 5.15024 71.0107 5.15024C70.1218 5.15024 69.3552 5.35024 68.7107 5.75024C68.0774 6.15024 67.5941 6.71135 67.2607 7.43357C66.9274 8.1558 66.7607 8.98913 66.7607 9.93357Z" fill="#010504"/>
<path d="M84.7128 3.33357C86.0572 3.32246 87.0739 3.60024 87.7628 4.16691C88.4628 4.72246 88.8128 5.47246 88.8128 6.41691C88.8128 7.12802 88.6017 7.72802 88.1795 8.21691C87.7684 8.69468 87.2017 8.97246 86.4795 9.05024C87.6684 9.15024 88.6295 9.48357 89.3628 10.0502C90.0961 10.6169 90.4628 11.4391 90.4628 12.5169C90.4628 13.928 89.9239 14.9725 88.8461 15.6502C87.7795 16.328 86.4017 16.6669 84.7128 16.6669H79.4128V3.33357H84.7128ZM84.7128 8.28357C85.4906 8.28357 86.0684 8.13913 86.4461 7.85024C86.8239 7.56135 87.0128 7.16135 87.0128 6.65024C87.0128 6.17246 86.8239 5.80024 86.4461 5.53357C86.0684 5.25579 85.4906 5.11691 84.7128 5.11691H81.1961V8.28357H84.7128ZM84.7128 14.8836C86.1128 14.8836 87.0961 14.6614 87.6628 14.2169C88.2295 13.7614 88.5128 13.1558 88.5128 12.4002C88.5128 11.6891 88.2184 11.1169 87.6295 10.6836C87.0406 10.2502 86.0684 10.0336 84.7128 10.0336H81.1961V14.8836H84.7128Z" fill="#010504"/>
<path d="M101.128 3.33357H103.178L98.4943 12.0002V16.6336H96.6443V12.0002L91.961 3.33357H93.9443L97.561 10.3336L101.128 3.33357Z" fill="#010504"/>
<path d="M59.6667 23.3336H61.4167V36.6669H59.5167L52.5834 26.0169V36.6669H50.8334V23.3336H52.7334L59.6667 33.9836V23.3336Z" fill="#010504"/>
<path d="M74.1693 25.0836H66.336V29.1336L73.086 29.1169V30.8669H66.336V34.9336L74.1693 34.9169V36.6669H64.586V23.3336H66.336V23.3502L74.1693 23.3336V25.0836Z" fill="#010504"/>
<path d="M86.5494 23.3336V25.0836H82.3994V36.6669H80.6494V25.0836H76.4994V23.3502H80.6494V23.3336H86.5494Z" fill="#010504"/>
<path d="M90.7015 23.3336L93.4848 34.1502L96.4848 23.3336H98.3015L101.085 34.1502L104.085 23.3336H105.901L102.035 36.6669H100.085L97.3681 26.2002L94.4348 36.6669H92.4848L88.8848 23.3336H90.7015Z" fill="#010504"/>
<path d="M107.406 29.9336C107.406 28.6447 107.64 27.5058 108.106 26.5169C108.584 25.5169 109.279 24.7391 110.19 24.1836C111.101 23.6169 112.195 23.3336 113.473 23.3336C114.751 23.3336 115.845 23.6169 116.756 24.1836C117.667 24.7391 118.356 25.5169 118.823 26.5169C119.301 27.5058 119.54 28.6447 119.54 29.9336C119.54 31.2336 119.301 32.3947 118.823 33.4169C118.356 34.428 117.667 35.2225 116.756 35.8002C115.845 36.378 114.751 36.6669 113.473 36.6669C112.195 36.6669 111.101 36.378 110.19 35.8002C109.279 35.2225 108.584 34.428 108.106 33.4169C107.64 32.3947 107.406 31.2336 107.406 29.9336ZM109.223 29.9336C109.223 30.9002 109.39 31.7558 109.723 32.5002C110.056 33.2447 110.54 33.8225 111.173 34.2336C111.817 34.6447 112.584 34.8502 113.473 34.8502C114.362 34.8502 115.123 34.6447 115.756 34.2336C116.401 33.8113 116.89 33.2336 117.223 32.5002C117.556 31.7558 117.723 30.9002 117.723 29.9336C117.723 28.9891 117.556 28.1558 117.223 27.4336C116.89 26.7113 116.401 26.1502 115.756 25.7502C115.123 25.3502 114.362 25.1502 113.473 25.1502C112.584 25.1502 111.817 25.3502 111.173 25.7502C110.54 26.1502 110.056 26.7113 109.723 27.4336C109.39 28.1558 109.223 28.9891 109.223 29.9336Z" fill="#010504"/>
<path d="M132.792 27.6169C132.792 28.4725 132.569 29.1891 132.125 29.7669C131.681 30.3447 131.069 30.7947 130.292 31.1169L132.675 36.6669H130.725L128.542 31.5836C128.075 31.6614 127.564 31.7002 127.008 31.7002H123.658V36.6669H121.875V23.3336H127.008C128.731 23.3336 130.125 23.6447 131.192 24.2669C132.258 24.8891 132.792 26.0058 132.792 27.6169ZM127.008 29.9669C128.408 29.9669 129.397 29.778 129.975 29.4002C130.553 29.0114 130.842 28.4002 130.842 27.5669C130.842 26.7558 130.542 26.1447 129.942 25.7336C129.353 25.3114 128.375 25.1002 127.008 25.1002H123.658V29.9669H127.008Z" fill="#010504"/>
<path d="M145.223 23.3336L139.556 30.0169L145.223 36.6669H143.023L138.456 31.3002L136.873 33.1669V36.6669H135.123V23.3336H136.873V30.6002L143.023 23.3336H145.223Z" fill="#010504"/>
</svg>
