<svg width="16" height="16" viewBox="0 0 16 16" fill="none" xmlns="http://www.w3.org/2000/svg">
<g opacity="0.4">
<path d="M8.00004 8.66666C8.36823 8.66666 8.66671 8.36818 8.66671 7.99999C8.66671 7.63181 8.36823 7.33333 8.00004 7.33333C7.63185 7.33333 7.33337 7.63181 7.33337 7.99999C7.33337 8.36818 7.63185 8.66666 8.00004 8.66666Z" stroke="#010504" stroke-linecap="round" stroke-linejoin="round"/>
<path d="M12.6667 8.66666C13.0349 8.66666 13.3333 8.36818 13.3333 7.99999C13.3333 7.63181 13.0349 7.33333 12.6667 7.33333C12.2985 7.33333 12 7.63181 12 7.99999C12 8.36818 12.2985 8.66666 12.6667 8.66666Z" stroke="#010504" stroke-linecap="round" stroke-linejoin="round"/>
<path d="M3.33329 8.66666C3.70148 8.66666 3.99996 8.36818 3.99996 7.99999C3.99996 7.63181 3.70148 7.33333 3.33329 7.33333C2.9651 7.33333 2.66663 7.63181 2.66663 7.99999C2.66663 8.36818 2.9651 8.66666 3.33329 8.66666Z" stroke="#010504" stroke-linecap="round" stroke-linejoin="round"/>
</g>
</svg>
