<svg width="20" height="20" viewBox="0 0 20 20" fill="none" xmlns="http://www.w3.org/2000/svg">
<circle cx="10" cy="10" r="10" fill="#8247E5"/>
<g clip-path="url(#clip0_693_39)">
<path d="M12.6567 8.04478C12.4478 7.92538 12.1791 7.92538 11.9403 8.04478L10.2687 9.02986L9.13433 9.65672L7.49254 10.6418C7.28358 10.7612 7.01493 10.7612 6.77612 10.6418L5.49254 9.86568C5.28358 9.74627 5.13433 9.50747 5.13433 9.23881V7.74627C5.13433 7.50747 5.25373 7.26866 5.49254 7.11941L6.77612 6.37314C6.98507 6.25374 7.25373 6.25374 7.49254 6.37314L8.77612 7.14926C8.98507 7.26866 9.13433 7.50747 9.13433 7.77612V8.7612L10.2687 8.10448V7.08956C10.2687 6.85075 10.1493 6.61194 9.91045 6.46269L7.52239 5.05971C7.31343 4.9403 7.04478 4.9403 6.80597 5.05971L4.35821 6.49254C4.1194 6.61194 4 6.85075 4 7.08956V9.89553C4 10.1343 4.1194 10.3731 4.35821 10.5224L6.77612 11.9254C6.98507 12.0448 7.25373 12.0448 7.49254 11.9254L9.13433 10.9702L10.2687 10.3134L11.9104 9.35821C12.1194 9.23881 12.3881 9.23881 12.6269 9.35821L13.9104 10.1045C14.1194 10.2239 14.2687 10.4627 14.2687 10.7313V12.2239C14.2687 12.4627 14.1493 12.7015 13.9104 12.8508L12.6567 13.597C12.4478 13.7164 12.1791 13.7164 11.9403 13.597L10.6567 12.8508C10.4478 12.7313 10.2985 12.4925 10.2985 12.2239V11.2687L9.16418 11.9254V12.9105C9.16418 13.1493 9.28358 13.3881 9.52239 13.5373L11.9403 14.9403C12.1493 15.0597 12.4179 15.0597 12.6567 14.9403L15.0746 13.5373C15.2836 13.4179 15.4328 13.1791 15.4328 12.9105V10.0746C15.4328 9.83583 15.3134 9.59702 15.0746 9.44777L12.6567 8.04478Z" fill="white"/>
</g>
<defs>
<clipPath id="clip0_693_39">
<rect width="11.4627" height="10" fill="white" transform="translate(4 5)"/>
</clipPath>
</defs>
</svg>
