<svg width="194" height="194" viewBox="0 0 194 194" fill="none" xmlns="http://www.w3.org/2000/svg">
<path d="M96.6058 67L101.347 71.6393L107.443 69.0258L110.188 75.0644L116.817 74.8297L117.195 81.452L123.461 83.6278L121.421 89.9395L126.478 94.2319L122.296 99.3805L125.461 105.21L119.701 108.5L120.546 115.079L113.987 116.066L112.399 122.507L105.926 121.058L102.118 126.489L96.6058 122.8L91.0933 126.489L87.2858 121.058L80.8129 122.507L79.2245 116.066L72.6653 115.079L73.5106 108.5L67.7511 105.21L70.9159 99.3805L66.7338 94.2319L71.7907 89.9395L69.7509 83.6278L76.017 81.452L76.395 74.8297L83.0239 75.0644L85.7686 69.0258L91.8651 71.6393L96.6058 67Z" fill="#28FF98"/>
<path d="M153.462 75.0658L152.674 73.478C152.983 73.2483 153.225 72.9862 153.4 72.6918C153.575 72.3974 153.693 72.0851 153.753 71.7548C153.813 71.4246 153.815 71.0874 153.758 70.7433C153.703 70.4026 153.593 70.066 153.428 69.7336C153.13 69.1331 152.712 68.6704 152.174 68.3455C151.638 68.024 151.01 67.8709 150.291 67.8862C149.572 67.9049 148.793 68.1233 147.952 68.5415C147.104 68.9632 146.455 69.4547 146.007 70.0162C145.56 70.5811 145.305 71.1752 145.242 71.7986C145.18 72.4219 145.296 73.0305 145.591 73.6242C145.754 73.9533 145.953 74.2435 146.188 74.4948C146.428 74.7478 146.696 74.9509 146.992 75.1041C147.288 75.2572 147.604 75.3537 147.941 75.3935C148.283 75.4349 148.636 75.4053 149.001 75.3044L149.784 76.8947C149.23 77.0646 148.677 77.1344 148.125 77.1043C147.578 77.076 147.054 76.9494 146.553 76.7245C146.057 76.5014 145.604 76.1895 145.194 75.7886C144.783 75.3878 144.436 74.9007 144.151 74.3274C143.703 73.4249 143.517 72.5146 143.594 71.5965C143.675 70.6766 144.014 69.8142 144.612 69.009C145.212 68.2073 146.067 67.5307 147.176 66.9792C148.288 66.4261 149.344 66.1549 150.343 66.1657C151.346 66.1748 152.236 66.426 153.014 66.9191C153.795 67.4106 154.409 68.1059 154.855 69.0049C155.13 69.5579 155.306 70.1132 155.384 70.6709C155.468 71.2302 155.452 71.7774 155.337 72.3126C155.225 72.846 155.013 73.3471 154.7 73.8157C154.391 74.2826 153.978 74.6993 153.462 75.0658Z" fill="#010504"/>
<path d="M155.04 89.2742C153.831 89.5615 152.74 89.5874 151.766 89.3517C150.795 89.1152 149.985 88.6673 149.335 88.0081C148.69 87.3516 148.252 86.535 148.021 85.558C147.79 84.5774 147.815 83.6466 148.098 82.7658C148.385 81.8877 148.911 81.1241 149.676 80.475C150.441 79.8259 151.427 79.3581 152.632 79.0717C153.84 78.7843 154.93 78.7589 155.9 78.9955C156.875 79.2311 157.684 79.6771 158.33 80.3336C158.98 80.9928 159.42 81.8127 159.652 82.7934C159.882 83.7703 159.854 84.6978 159.567 85.5758C159.285 86.4567 158.761 87.2217 157.996 87.8708C157.234 88.5191 156.249 88.9869 155.04 89.2742ZM154.641 87.5821C155.562 87.3631 156.302 87.0294 156.862 86.581C157.426 86.1354 157.81 85.616 158.012 85.0228C158.219 84.4324 158.246 83.8127 158.093 83.1639C157.939 82.5114 157.637 81.9679 157.188 81.5334C156.743 81.0981 156.168 80.8064 155.464 80.6585C154.764 80.5134 153.954 80.5503 153.032 80.7693C152.111 80.9883 151.368 81.3206 150.804 81.7662C150.244 82.2146 149.861 82.734 149.654 83.3244C149.451 83.9139 149.426 84.5349 149.58 85.1875C149.733 85.8363 150.032 86.3784 150.478 86.8137C150.928 87.2519 151.502 87.5435 152.202 87.6887C152.906 87.8366 153.719 87.8011 154.641 87.5821Z" fill="#010504"/>
<path d="M161.077 101.48L149.442 101.605L149.428 99.9911L157.911 93.9849L157.911 93.8769L149.377 93.9686L149.362 92.2129L160.998 92.088L161.011 93.7129L152.517 99.7249L152.518 99.8329L161.063 99.7411L161.077 101.48Z" fill="#010504"/>
<path d="M158.537 115.312L147.151 112.91L147.488 111.332L157.074 107.309L157.097 107.204L148.747 105.442L149.114 103.725L160.499 106.128L160.16 107.717L150.561 111.742L150.539 111.848L158.9 113.612L158.537 115.312Z" fill="#010504"/>
<path d="M146.166 115.228L156.863 119.81L153.974 126.51L152.585 125.914L154.778 120.827L151.519 119.431L149.477 124.169L148.093 123.576L150.135 118.838L146.861 117.436L144.64 122.585L143.251 121.99L146.166 115.228Z" fill="#010504"/>
<path d="M143.101 136.191L144.117 134.738C144.467 134.899 144.813 134.985 145.155 134.998C145.498 135.01 145.829 134.963 146.148 134.858C146.466 134.752 146.763 134.592 147.038 134.377C147.311 134.165 147.554 133.907 147.766 133.603C148.15 133.054 148.356 132.465 148.383 131.838C148.408 131.214 148.241 130.59 147.882 129.966C147.521 129.345 146.955 128.767 146.184 128.23C145.407 127.689 144.664 127.356 143.956 127.232C143.246 127.111 142.602 127.173 142.024 127.417C141.447 127.662 140.968 128.055 140.589 128.599C140.378 128.9 140.219 129.213 140.111 129.54C140.004 129.872 139.954 130.204 139.962 130.537C139.969 130.87 140.037 131.194 140.163 131.508C140.291 131.828 140.487 132.123 140.75 132.394L139.73 133.844C139.315 133.44 138.988 132.988 138.749 132.49C138.512 131.997 138.371 131.477 138.329 130.93C138.287 130.388 138.343 129.841 138.498 129.289C138.653 128.737 138.914 128.198 139.28 127.674C139.857 126.848 140.568 126.248 141.411 125.875C142.257 125.504 143.177 125.388 144.171 125.526C145.163 125.668 146.167 126.092 147.183 126.8C148.203 127.51 148.948 128.306 149.418 129.187C149.891 130.07 150.098 130.971 150.038 131.89C149.982 132.81 149.666 133.682 149.091 134.505C148.737 135.011 148.334 135.432 147.882 135.768C147.431 136.109 146.943 136.358 146.418 136.514C145.896 136.672 145.354 136.726 144.793 136.677C144.234 136.63 143.67 136.468 143.101 136.191Z" fill="#010504"/>
<path d="M142.367 140.192L143.402 141.294L136.833 147.454L135.798 146.352L138.447 143.869L131.514 136.489L132.791 135.292L139.723 142.672L142.367 140.192Z" fill="#010504"/>
<path d="M121.653 143.474L129.402 152.733L127.721 153.498L121.931 146.231L121.833 146.276L123.413 155.457L121.747 156.215L115.873 148.981L115.775 149.026L117.444 158.172L115.758 158.939L113.89 147.005L115.498 146.274L121.331 153.196L121.414 153.158L120.039 144.208L121.653 143.474Z" fill="#010504"/>
<path d="M108.22 148.458L110.054 148.129L107.963 160.325L105.967 160.683L99.8139 149.963L101.648 149.634L106.549 158.431L106.638 158.415L108.22 148.458ZM108.708 153L102.757 154.065L102.499 152.611L108.45 151.545L108.708 153Z" fill="#010504"/>
<path d="M98.5007 149.747L98.3002 161.382L96.5447 161.356L96.7192 151.232L91.4471 151.154L91.4731 149.642L98.5007 149.747Z" fill="#010504"/>
<path d="M89.7139 149.349L87.5727 160.787L85.8462 160.468L87.7093 150.516L82.5242 149.559L82.8023 148.073L89.7139 149.349Z" fill="#010504"/>
<path d="M80.8025 147.415L76.7076 158.307L69.8726 155.756L70.4045 154.341L75.5946 156.278L76.8423 152.96L72.0088 151.156L72.5386 149.747L77.3721 151.55L78.6258 148.216L73.3718 146.255L73.9036 144.84L80.8025 147.415Z" fill="#010504"/>
<path d="M66.9376 152.604L66.1469 153.892L58.4625 149.196L59.2532 147.908L62.3512 149.802L67.6482 141.173L69.1414 142.085L63.8444 150.714L66.9376 152.604Z" fill="#010504"/>
<path d="M54.3472 136.579L52.5242 138.141L54.8583 138.725L54.4949 139.915L52.2244 139.099L52.8951 141.415L51.6835 141.702L51.2477 139.338L49.5726 141.056L48.7284 140.158L50.5513 138.596L48.2172 138.012L48.5807 136.822L50.8511 137.638L50.1805 135.322L51.392 135.035L51.8279 137.399L53.503 135.681L54.3472 136.579Z" fill="#28FF98"/>
<path d="M40.1589 119.874L40.9721 121.449C40.6668 121.683 40.4288 121.949 40.2582 122.246C40.0875 122.543 39.9747 122.857 39.9197 123.188C39.8646 123.519 39.8681 123.856 39.9302 124.199C39.9905 124.539 40.1057 124.874 40.276 125.204C40.5836 125.799 41.0088 126.255 41.5516 126.572C42.0927 126.885 42.7231 127.029 43.4427 127.002C44.1606 126.973 44.937 126.743 45.7717 126.312C46.6132 125.877 47.2538 125.376 47.6938 124.808C48.1319 124.236 48.3775 123.639 48.4304 123.014C48.4834 122.39 48.3578 121.784 48.0537 121.195C47.8852 120.868 47.6815 120.581 47.4429 120.334C47.1991 120.084 46.928 119.885 46.6296 119.737C46.3312 119.588 46.0132 119.496 45.6756 119.462C45.333 119.426 44.9802 119.461 44.6173 119.567L43.8092 117.989C44.3609 117.811 44.913 117.733 45.4656 117.754C46.013 117.774 46.5389 117.893 47.0431 118.11C47.5423 118.326 48.0003 118.631 48.417 119.025C48.8338 119.419 49.189 119.901 49.4827 120.47C49.9449 121.365 50.1446 122.272 50.0819 123.191C50.0159 124.112 49.69 124.979 49.1041 125.793C48.5166 126.604 47.6725 127.293 46.5719 127.862C45.4679 128.432 44.4161 128.719 43.4167 128.723C42.4138 128.729 41.5196 128.492 40.7341 128.011C39.9452 127.531 39.3206 126.846 38.8601 125.954C38.5769 125.405 38.3919 124.853 38.3051 124.296C38.2131 123.738 38.2205 123.191 38.3271 122.654C38.4303 122.119 38.6347 121.615 38.9403 121.142C39.2425 120.671 39.6488 120.248 40.1589 119.874Z" fill="#010504"/>
<path d="M38.3883 105.899C39.5914 105.589 40.6822 105.542 41.6607 105.76C42.6354 105.978 43.4539 106.41 44.1162 107.057C44.7738 107.702 45.2271 108.51 45.4761 109.482C45.7261 110.458 45.7182 111.389 45.4524 112.275C45.182 113.159 44.6704 113.932 43.9175 114.595C43.1646 115.259 42.1884 115.745 40.989 116.054C39.7858 116.364 38.6969 116.41 37.7221 116.192C36.7437 115.974 35.9257 115.544 35.268 114.9C34.6058 114.253 34.1497 113.441 33.8997 112.465C33.6507 111.493 33.6614 110.565 33.9318 109.682C34.1975 108.796 34.7069 108.021 35.4598 107.357C36.209 106.695 37.1852 106.209 38.3883 105.899ZM38.8196 107.583C37.9026 107.819 37.1686 108.167 36.6174 108.626C36.0617 109.082 35.6882 109.608 35.497 110.205C35.3011 110.799 35.2859 111.419 35.4513 112.065C35.6176 112.715 35.9293 113.252 36.3864 113.678C36.8398 114.105 37.42 114.386 38.1271 114.521C38.8295 114.653 39.6392 114.601 40.5562 114.364C41.4732 114.128 42.2096 113.782 42.7653 113.326C43.3165 112.867 43.69 112.34 43.8858 111.746C44.078 111.153 44.0909 110.532 43.9246 109.882C43.7592 109.236 43.4498 108.7 42.9964 108.273C42.5383 107.843 41.9581 107.563 41.2557 107.431C40.5487 107.296 39.7367 107.347 38.8196 107.583Z" fill="#010504"/>
<path d="M32.1298 93.6422L43.7624 93.3464L43.7998 94.9596L35.4057 101.09L35.4082 101.198L43.9396 100.981L43.9803 102.736L32.3477 103.032L32.31 101.407L40.7153 95.2711L40.7128 95.1632L32.1701 95.3804L32.1298 93.6422Z" fill="#010504"/>
<path d="M34.3892 79.9319L45.8165 82.1275L45.5081 83.7113L35.9967 87.9069L35.976 88.0128L44.3569 89.623L44.0213 91.3463L32.5939 89.1508L32.9045 87.5558L42.4282 83.3568L42.4488 83.2509L34.0568 81.6385L34.3892 79.9319Z" fill="#010504"/>
<path d="M46.7823 79.6706L36.02 75.2458L38.8102 68.505L40.208 69.0797L38.0893 74.1983L41.3685 75.5465L43.3416 70.7796L44.7341 71.3522L42.761 76.119L46.0559 77.4737L48.2007 72.2921L49.5985 72.8668L46.7823 79.6706Z" fill="#010504"/>
<path d="M49.4087 58.7711L48.4204 60.2428C48.0675 60.0888 47.7197 60.0088 47.377 60.0028C47.0342 59.9969 46.7044 60.0497 46.3876 60.1613C46.0708 60.273 45.777 60.4387 45.5061 60.6586C45.2374 60.8753 44.9995 61.1378 44.7926 61.4459C44.4188 62.0025 44.2242 62.5946 44.2087 63.2223C44.1954 63.8468 44.374 64.4676 44.7445 65.0845C45.117 65.6983 45.6937 66.2663 46.4746 66.7886C47.2617 67.3151 48.0105 67.6337 48.721 67.7443C49.4336 67.8519 50.0762 67.7782 50.649 67.5233C51.2217 67.2683 51.6928 66.8657 52.0624 66.3154C52.2672 66.0104 52.4206 65.6937 52.5225 65.3654C52.6233 65.0318 52.6668 64.6987 52.653 64.3659C52.6393 64.0331 52.566 63.7107 52.4334 63.3987C52.2997 63.0814 52.0986 62.7897 51.8302 62.5236L52.8233 61.0551C53.2459 61.4517 53.5811 61.8969 53.8289 62.3908C54.0757 62.8794 54.2256 63.3967 54.2788 63.9426C54.3309 64.4833 54.2846 65.0311 54.1401 65.5861C53.9955 66.1411 53.7448 66.6843 53.3879 67.2157C52.8261 68.0522 52.1273 68.6647 51.2913 69.0535C50.4522 69.4401 49.5344 69.5735 48.5379 69.4539C47.5436 69.3311 46.5316 68.9253 45.5021 68.2367C44.4694 67.5459 43.7098 66.7644 43.2233 65.8922C42.7337 65.0178 42.5102 64.1209 42.5527 63.2015C42.5921 62.28 42.8916 61.4026 43.4513 60.5693C43.7955 60.0567 44.1905 59.6282 44.6362 59.2838C45.0809 58.9342 45.5643 58.6764 46.0863 58.5106C46.6051 58.3427 47.1458 58.2783 47.7082 58.3172C48.2675 58.3541 48.8343 58.5054 49.4087 58.7711Z" fill="#010504"/>
<path d="M49.8611 54.9422L48.8054 53.8607L55.2561 47.5766L56.3118 48.6581L53.7112 51.1916L60.7837 58.4369L59.5302 59.658L52.4576 52.4127L49.8611 54.9422Z" fill="#010504"/>
<path d="M70.4931 51.1698L62.5676 42.0615L64.2335 41.2648L70.1616 48.4186L70.259 48.372L68.5033 39.2229L70.1538 38.4335L76.1664 45.5532L76.2638 45.5067L74.4185 36.394L76.0895 35.5949L78.187 47.4904L76.5928 48.2527L70.628 41.444L70.546 41.4832L72.0924 50.405L70.4931 51.1698Z" fill="#010504"/>
<path d="M84.1404 45.7914L82.3111 46.1473L84.2189 33.9216L86.21 33.5342L92.523 44.1605L90.6937 44.5164L85.6619 35.7941L85.5727 35.8115L84.1404 45.7914ZM83.5846 41.2572L89.5188 40.1027L89.7984 41.5533L83.8643 42.7078L83.5846 41.2572Z" fill="#010504"/>
<path d="M93.5127 44.34L93.4996 32.7037L95.2552 32.6977L95.2667 42.8227L100.539 42.8048L100.541 44.3161L93.5127 44.34Z" fill="#010504"/>
<path d="M102.503 44.5622L104.436 33.0875L106.168 33.3748L104.486 43.3591L109.687 44.2219L109.436 45.7123L102.503 44.5622Z" fill="#010504"/>
<path d="M111.504 46.3373L115.4 35.3725L122.28 37.7981L121.774 39.2223L116.55 37.3804L115.363 40.7212L120.228 42.4366L119.724 43.8554L114.858 42.14L113.666 45.4969L118.955 47.3615L118.449 48.7857L111.504 46.3373Z" fill="#010504"/>
<path d="M125.248 40.8743L126.015 39.5719L133.785 44.1245L133.018 45.427L129.886 43.5915L124.749 52.317L123.24 51.4323L128.376 42.7069L125.248 40.8743Z" fill="#010504"/>
<path d="M138.125 56.6306L139.918 55.0347L137.573 54.4952L137.913 53.2987L140.199 54.0704L139.484 51.7683L140.69 51.4582L141.171 53.8136L142.813 52.0632L143.674 52.9455L141.882 54.5414L144.226 55.0809L143.886 56.2773L141.6 55.5057L142.315 57.8077L141.109 58.1179L140.628 55.7625L138.986 57.5129L138.125 56.6306Z" fill="#28FF98"/>
</svg>
